<?xml version="1.0" encoding="UTF-8"?>
<svg id="Layer_2" data-name="Layer 2" xmlns="http://www.w3.org/2000/svg" viewBox="0 0 393.81 407.47">
  <g id="Layer_1-2" data-name="Layer 1">
    <g>
      <path d="M283.56,115.09l-7.25-6.73c1.13,4.19,1.98,7.81,7.25,6.73Z"/>
      <path d="M189.61,226.91c-2.87.49-5.1,4.54-5.75,7.13-.29,1.17-.53,1.66.52,2.43,2.48,1.81,5.5,1.42,7.8-.46.51-.42,2.04-2.13,2.17-2.72.32-1.42-.31-3.94-1.2-5.1-.92-1.18-2.06-1.53-3.54-1.28Z"/>
      <path d="M275.28,303.1c.98-.76,8.4-7.54,7.76-8.29-4.31.74-7,4.03-7.76,8.29Z"/>
      <path d="M119.39,339.35c.95,2.35,2.54,4.21,3.5,6.6,2.9,7.23,1.13,10.78,7.56,17.04,5.03,4.9,12.26,7.88,19.25,8.46.98.08,3.81.44,4.39-.5-20.23.38-24.07-19.25-34.69-31.6Z"/>
      <path d="M117.83,108.88c-.64.76-7.97,6.04-7.24,6.73,4.58.33,6.46-2.46,7.24-6.73Z"/>
      <path d="M110.06,294.82c.83,1.03,8.58,9.45,9.32,8.79-1.59-5.24-3.35-8.43-9.32-8.79Z"/>
      <path d="M219.34,52.17c-5.79.45-7.98-2.69-7.26-8.3.6-4.65,5.48-7.92,8.81-10.6-5.04,1.15-10.17,3.06-12.36,8.09-3.46,7.92,2.68,15.35,10.81,10.81Z"/>
      <path d="M299.1,82.98c-1.72-1.39-3.85-2.05-5.65-3.41-6.7-5.06-13.62-18.75-.56-19.38-2.15-3.8-7.63-3.15-9.76.34-4.94,8.08,7.46,22.19,15.97,22.44Z"/>
      <path d="M190.75,71.23c-102.95,4.61-153.11,122.03-102.14,206.96,45.3,75.48,149.78,85.08,205.51,15.53,70.89-88.47,15.36-227.81-103.37-222.49ZM307.48,144.27c4.88,10.92,14.5,39.55,11.06,50.6-2.78,8.95-15.77,6.79-14.79-2.35.64-5.95,10-4.8,6.49.77l-1.61-2.54c-4.88-1.71-3.2,9.9,4.33,6.82,5.64-2.3,1.64-11.85-.98-15.32-1.03-1.37-2.88-1.67-3.03-3.44l4.93,2.58,3.35,6.22c.19-5.08-3.17-15.09-9.12-15.52-4.17-.3-4.66,5.07-1.75,6.21l-.85.98c-5.2,1.08-4.96-12.65,5.21-8.71,2.15.83,2.86,2.75,4.45,4.09-.98-5.31-3.76-11.12-8.04-14.49-2.73-2.15-5.27-2.42-8.01-4.15,4.28-1.65,8.28.6,11.14,3.62.39.08.35-.53.25-.76-1.42-3.38-8.97-13.51-12.77-13.6-.97-.02-1.44.6-2.23.9l.72-2.64c4.13-1.91,7.31,1.49,9.89,4.19-.54-3.02-3.35-6.92-5.33-9.69-3.61-5.06-9.59-12.51-16.42-12.61-4.27-.07-7.21,1.87-5.49,6.42l2.49.5,1.95-2.74c3.84,4.09-3.5,7.57-6.46,3.36-4.32-6.14,4.22-12.65,10.21-9.69l9.47,6.06c-3.32-3.2-6.3-8.21-10.72-9.99-4.03-1.63-6.88-.34-9.58-4.92-3.86-6.54-2.68-8.76-9.73-14.62-.6-.5-3.31-2.95-3.11-1.04,3.37,3.68,6.11,8.73,5.05,13.87-1.05,5.08-8.23,5.61-7.64,3.24.21-.85,3.66-.88,4.43-3.35,2.54-8.2-9.61-19.54-16.86-21.77,3.26,3.58,9.13,9.05,6.31,14.34-2.37,4.45-8.6,2.86-7.87-.09.47-1.91,3.04,1.17,4.15,0,1.82-2.19,1.05-4.51,0-6.76-3.54-7.57-17.36-12.97-25.39-12.15l7.9,2.19c3.92,1.38,10.49,4.94,12.81,8.42.66.99,2.01,2.93,0,3.11-6.4-9.62-25.59-15.75-35.39-8.99-8.7,6-3.85,19.76,5.49,17.93,5.85-1.15,4.95-9.72,1.16-9.77l-1.57.56.72,2.42-.79,1.13-2.77-.18c-4.27-7.73,8.13-8.99,10.01-1.72,3.25,12.55-14.96,14.32-18.69,2.64-3.88-12.15,8.31-19.51,18.77-20.36,32.88-2.66,71.63,32.53,84.27,60.78ZM262.53,249.93l6.92-8.37,7.89,7.06c0,.11-.79,1.11-.95,1.31-1.57,1.94-3.55,3.95-4.97,5.95-.09.13-.27.4-.24.54,1.01.94,1.99,1.94,3,2.87.75.69,1.62,1.34,2.37,2.03.56.52,1.08,1.31,1.79,1.55l-6.93,8.64-7.57-6.95,6.01-7.97-7.32-6.68ZM260.42,231.02c.86,11.8-2.39,28.81-13.65,35.1-4.96,2.77-9.97,3.22-15.45,3.95-5.7.76-11.54,1.86-17.28,2.12-.79.04-1.58-.04-2.37,0v-1.46c4.74-.88,9.56-1.74,14.07-3.47,10.11-3.86,22.98-14.07,28.29-23.54,1.72-3.06,3.77-7.86,3.95-11.37.05-.92-.35-1.93-.33-2.86-.09-.09-2.08.83-2.4.94-4.92,1.66-11.63,1.84-13.34-4.19-.88-3.12-.36-9.81.1-13.12.31-2.27,1.06-4.26,3.66-4.49,4.42-.4,8.05,2.47,10.33,5.98l1.41,2.66c.21.05.28-.14.41-.24,1.9-1.63,5.08-5.82,5.83-8.19.4-1.28-.01-2.69-.37-3.96-1.35-4.86-4.57-9.2-7.55-13.15-.03-.69-.06-1.4-.04-2.1.12-2.89.47-6.08,1-8.94.06-.3.34-1.89.56-1.89,3.16,4.98,6.38,10.04,8.03,15.77,2.15,7.5,1.82,16.04-.36,23.51-.99,3.41-2.46,6.86-4.79,9.55l.31,3.4ZM206.39,291.7l-6.21,3.89-3.62,8.02c-.66-6.37-4.25-9.27-8.81-12.94l6.21,1.55c.18-2.39.69-4.76,1.55-7,.23-.59.94-3.27,1.81-2.84,1.8,2.84,2.5,6.52,2.34,9.84,1.96-1.79,4.97-3.28,6.73-.52ZM201.87,244.71c-3.23,2.37-6.99,4.32-11.08,4.41-6.56,7.33-15.92,12.78-25.06,16.35-18.99,7.41-47.43,7.58-49.78-18.45-.55-6.09-1.21-14.09,1.44-19.76,4.78-10.23,19.7-14.87,29.16-19.74,7.44-3.82,13.72-8.06,18.54-15.04,2.38-3.44,4.24-7.28,5.8-11.16v-.39s-8.97-4.25-8.97-4.25l4.08-10.1,9.77,4.56c.22.21-1.79,4.61-2.03,5.21-3.14,7.83-5.02,16.15-9.95,23.13-5.89,8.32-15.94,13.38-24.9,17.81-7.29,3.61-16.75,7.01-20.09,15.12-1.7,4.14-1.87,7.54-.11,11.69,2.88,6.81,9.34,11.12,16.46,12.56,14.2,2.86,32.21-2.92,44.44-10.25.58-.35,1.97-1.12,2.39-1.52.11-.11.17-.15.17-.33.02-.41-.4-1.59-.49-2.13-.73-4.31-.59-9.02-.18-13.36.42-4.48,1.69-10.07,4.73-13.52,3.23-3.66,7.64-1.6,9.54,2.2,1.95,3.89,1.53,12.08,1.05,16.38-.04.39-.47,2.19-.32,2.37.51-.24,1.07-.39,1.58-.62,5.28-2.33,9.5-7.7,11.09-13.19.64-2.19.93-4.46,1.02-6.72l1.47-.16.49,8.64c.53-.25.79-.83,1.14-1.22,2.79-3.18,5.54-6.81,6.61-10.99.84-3.26.52-6.34.07-9.62l.98-.09c.14.11.33.82.41,1.07.77,2.57,1.05,5.34,1.38,7.99.55-.53,1.03-1.25,1.44-1.9,1.03-1.66,2-3.72,2.56-5.59,1.16-3.89.84-7.89-.09-11.81l.9-.58c.18.13.24.3.33.49,1,2.24,1.95,5.43,2.61,7.82,2.81,10.2,1.72,17.63-6.36,24.78-.55.49-2.04,1.41-2.37,1.87-.57.78-1.05,2.04-1.65,2.92-2.94,4.34-7.45,8.24-12.7,9.31-1.32,2.32-3.41,4.29-5.55,5.86ZM197.58,132.19c-1.16.28-.84-.17-1.19-.64-1.86-2.52-2.09-6.18-1.92-9.19l-6.21,1.03,5.92-4.69,2.89-7.73,3.62,8.54,5.18,2.85-.85,2.11-5.36-2.63c.48,3.95-.51,6.87-2.09,10.36ZM195.52,155.58c5.25,3.88,7.73,8.73,9.35,14.94.05.2.04.65.28.62.05-.73.11-1.46.17-2.19.43-5-.25-8.28-3.03-12.46-2.33-3.49-6.03-6.36-6.75-10.69-.52-3.14-.06-8.42,3.25-9.94,3.05-1.4,5.87-.03,8.41,1.71.03.35.19.73.23,1.07.13,1.32.26,2.75.34,4.06.03.57-.04,1.15,0,1.72-1.62-1.18-3.42-2.17-5.38-2.69-1.41-.38-3.52-.84-4.48.58-1.01,1.49.8,3.64,1.7,4.8,4.57,5.88,8.81,9.69,7.82,17.92-.92,7.66-6.73,15.76-6.03,23.32.2,2.13,2.02,5.35,4.52,4.02,1.07-.57,2.21-2.79,2.49-3.95.66-.09,1.03.63.98,1.21-.11,1.16-1.3,3.73-1.98,4.71-2.52,3.65-6.38,2.92-8-1.09-1.55-3.84-.02-8.53,1.37-12.22,1.04-2.75,2.48-5.34,3.48-8.11-1.17-1.76-1.94-3.77-3.12-5.53-.92-1.37-2.53-3.36-3.83-4.32-1.02-.75-2.18-1.25-3.41-1.56.14.66.11,1.34.19,2.01.03.19.34.31-.11.28-1.82-1.48-4-2.68-6.27-3.27l-.34-5.61-.64-4.16c3.03,1.39,6.1,2.82,8.79,4.82ZM224.24,253.01c1.57,3.4,5.33,1.28,6.01-1.53,1.11.16.52,1.42.24,2.12-.59,1.5-2.06,3.9-3.55,4.6-3.19,1.48-5.47-1.2-5.81-4.2-.47-4.09.89-7.28,2.73-10.78,1.16-2.2,2.51-4.33,3.86-6.4l.56.34c.11.49-.31.8-.51,1.18-1.92,3.66-5.39,10.66-3.53,14.68ZM219.62,77.79c1.97.05,6.27.47,7.49,2.09h-9.06c-17.46,0-23.82,28.36-11.11,35.97,1.41.84,8.48,1.71,4.37,3.38-5.46,2.22-10.2-4.46-11.78-8.92-5.46-15.39,2.16-32.96,20.1-32.53ZM197.58,73.15c3.13,5.64,2.15,11.11-.77,16.57-2.38-4.48-4.79-13.59.77-16.57ZM168.75,78.77c16.81-4.81,28.47,7.76,27.3,24.17-.34,4.81-3.21,15.05-8.68,16.18-1.01.21-6.28.68-5.83-1.17,5.63-1.69,7.8-2.38,10.08-8.05,4.19-10.4,1.97-22.92-8.87-27.88-.94-.43-5.51-2.15-6.14-2.15h-9.06c-.24-1.49.32-.86,1.2-1.11ZM98.76,124.77c16.19-21.22,53.23-50.79,81.58-38.76,15.98,6.78,11.52,29.59-3.75,24.99-9.12-2.75-5.84-16.23,1.45-14.95,3.97.69,6.35,6.73,1.19,7.16l-1.71-1.3.41-2.61c-4.91-3.1-6.8,10.11,2.29,9.62,8.08-.43,9.5-9.61,5.45-15.3-8.43-11.85-31.49-3.32-38.83,6.47.49-6.57,8.27-9.19,13.33-11.79l7.9-2.19c-7.79-1-25.71,6.35-25.92,15.29-.12,5.32,4.78,2.52,5.17,4.7-2.01,3.86-6.61,1.3-7.76-2.11-1.99-5.87,3.88-10.79,7.79-14.26-7.47,1.35-19.44,13.38-19.18,20.95.11,3.15,2.09,4.78,5.19,4.42,1.12.91-4.35,4.72-7.02-1-2.75-5.9.49-11.46,4.43-15.83.08-.38-.54-.35-.77-.25-1.25.57-7.33,6.49-8.26,7.8-1.82,2.57-2.24,5.78-3.63,8.28-3.26,5.84-14.19,4.24-17.37,12.15l9.57-3.6c10.6-.14,9.33,13.75,1.68,12.04-2.72-.61-3.46-4.42-.38-5.08.16,6.04,6.82,1.39,3.12-2.86-5.71-6.56-16.91,5.53-20.2,9.86-1.05,1.38-5.93,8.71-6.22,9.84-.07.28-.15.84.25.76,2.38-2.77,9-6.96,10.62-1.55-7.77-.78-12.76,7.34-15.53,13.47,3.09-2.86,6.71-4.88,10.87-2.85-7.99,2.75-13.88,8.98-15.53,17.35,2.71-2.5,4.92-4.45,8.95-3.51,4.12.96,5.67,8.47.64,9.21-1.5-1.14.88-1.88.76-3.85-.24-3.89-4.01-3.77-6.7-2.08-4.65,2.92-5.89,9.73-6.23,14.73,1.07-1.1,1.1-3.14,1.86-4.6,1.43-2.73,3.66-4.76,6.94-4.19-5.04,2.61-8.14,10.13-6.5,15.56,2.32,7.69,15.51-.01,7.35-4.09l-2.13,2.51-.83-1.81c0-3.79,6.82-3.76,7.71,1.16,1.55,8.6-13.83,12.82-15.82.26-3.07-19.37,12.07-52.79,23.78-68.15ZM78.47,205.73c-.43-1.09-2.32-.94-3.3-1.61-1.36-.95-3.93-5.55-.85-5.63,1.18,3.44,5.36,4.98,8.69,5.56.85.15,5.88-.32,5.3.9-5.02,2.74-11.68,1.11-14.75,7.52-2-2.89,1.63-6.99,4.91-6.74ZM98.98,285.96c-11.3-15-25.9-47.74-24.15-66.52,1.4-15.01,19.19-10.12,15.16.14-1.67,4.25-8.1,3.38-6.85-1.94,6,7.39,7.52-5.52.26-5.21-7.47.31-5.33,11.67-1.81,15.82,1.22,1.44,3.29,2.02,3.61,3.89-4.29.05-7.28-3.95-8.29-7.76-.92-.13-.49,1.15-.39,1.68.82,4.23,5.06,11.8,9.96,11.8,5.17,0,1.51-5.91,1.83-6.24,3.89.04,4.41,5.66,1.82,7.78-4.42,2.88-8.09-.09-11.14-3.12,1.21,7.4,7.93,16.75,16.05,16.58-3.12,5.13-8.96.22-11.66-3.11-.39-.08-.35.53-.25.76,1.42,3.4,9.16,14.01,12.81,14.7,1.69.32,4.01-2.55,2.9,1.64-4.92,1.86-7.28-1.24-10.53-4.16,2.51,5.92,11.61,19.34,17.48,21.62,3.4,1.32,8.62.9,9.41-3.27.87-4.62-3.99-4.5-4.11-.22-5.09-5.57,5.81-8.33,7.06-1.57-1.23,11.98-13.48,9.47-19.23,2.09-.27,1.2,1.58,3.06,2.32,3.9,1.48,1.67,3.94,3.91,5.87,5,3.08,1.74,7.96,2.14,10.22,4.28,2.69,2.54,3.27,8.41,5.45,11.64.77,1.14,7.24,7.33,8.26,7.8.22.1.85.13.77-.25-3.68-3.74-7.97-12.27-5.39-17.31,1.51-2.94,7.45-4.49,6.41-1.36-.37,1.1-3.91.3-4.16,4.69-.32,5.67,4.76,12.52,8.83,16.05,2.57,2.23,6.77,5.25,9.84,5.69-4.36-4.23-9.84-9.25-7.65-15.94,1.43-4.35,7.72-7.08,8.17-1.42-7.44-.65-6.28,5.89-3.53,10.52,4.02,6.78,15.26,11.77,22.93,12.28.69.05,3.23.39,3.38-.53-6.9-.38-16.92-4.61-21.22-10.12-1-1.29-3.57-4.64-1.05-5.17,4.34,11.14,31.79,19.86,38.43,8.4,4.69-8.09-4.66-17.74-10.74-12.81-2.9,2.36-2.58,8.09,1.82,7.78-.05-6.15,7.62-2.3,3.65,1.83-6.88,7.15-16.11-12.25-3.92-13.75,13.97-1.73,19.25,19.16,3.37,25.11-27.77,10.4-66.37-20.95-82.03-41.72ZM177.66,334.72c-1.14.03-6.46-.53-7-1.07-.26-.26-.12-1.4.77-1.03,7.72.5,18.53-2.85,21.4-10.72,2.81-7.71-1.11-23.98-11.29-23.98l.31-1.6c11.31-2.65,15.09,14.38,14.19,22.57-.95,8.65-9.85,15.62-18.37,15.83ZM196.81,337.79c-3.41-3.79-2.81-9.91-.83-14.28.28-.61-.24-.93,1.08-.73.78,4.88,4.66,11.16-.25,15.01ZM222.73,334.19c-3.49,1.24-11.72.1-15.14-1.47-10.92-5.01-13.04-23.6-5.84-32.45,2.12-2.61,8.67-7.09,10.86-2.61-.89,1.23-2.46.56-3.64,1.03-5.63,2.26-8.41,8.13-8.81,13.97-1.07,15.38,9.7,20.28,23.33,20.48.18,1.38-.08.81-.76,1.05ZM316.56,238.47c-5.09,22.86-17.37,44.67-33.7,61.34-14.57,14.88-52.84,40.34-73.32,25.79-11.17-7.94-4.62-26.62,7.73-22.23,7.41,2.63,6.88,13.91-1.33,14.2-7.96.28-2.81-11.6,1.08-3.08,6.87-4.11-.14-11.94-6.65-8.2-5.88,3.38-5.12,12.8.53,16.41,10.05,6.42,30.14-1.82,35.13-12.33,1.14.76.48.96.31,1.84-1.48,7.38-14.75,13.75-21.8,14.21-.13.89,1.22.54,1.8.5,7.46-.55,16.67-4.56,21.84-10.02,4.4-4.65,6.68-14.1-2.4-12.76.27-5.37,6.6-2.89,8.39.68,3.24,6.45-2.31,12.5-6.84,16.41,6.73-2.47,17.66-12.09,18.09-19.49.25-4.36-1.24-5.93-5.13-7.17,2.22-2.53,5-1.48,6.64,1.12,4.13,6.56-.77,12.3-4.06,17.78,3.34-1.94,6.96-5.03,9.02-8.32,1.55-2.48,2.04-5.21,3.32-7.55,3.2-5.85,9.25-4.89,14.34-9.48,1.44-1.3,4.09-4.18,4.13-5.71-3.62,3.48-7.65,6.44-12.98,4.68-4.99-1.65-7.35-9.36-1.93-11.83,5.39-1.29,6.78,4.48,4.54,5.58-1.3.64-.21-2.48-2.17-3.03l-1.7.17c-4,1.99.14,9.24,8.12,6.07,4.25-1.69,16.79-15.8,17.76-20.05.07-.29.15-.84-.25-.76-1.97,2.84-8.76,7.19-9.58,1.55,6.8.19,11.92-7.05,13.46-12.95-2.6,2.08-5.55,4.1-9.01,2.64l-.31-1.6c7.63-.4,13.63-9,14.25-16.05-1.83,2.96-5.29,4.3-8.7,3.51-4.64-1.08-3.37-9.31-.12-8.69l-.17,6.13c5.94,2.27,11.18-6.05,11.31-11.31-1.29,1.62-2.04,3.4-3.97,4.57-1.13.68-2.73,1.83-3.79.35,4.62-2.15,7.78-8.41,7.27-13.47-.74-7.3-10.92-6.21-9.86-.03l1.03,1.59,2.28.2,1.87-1.49-.07,2.77c-8.63,4.56-9.89-9.48-1.75-10.55,14.56-1.91,9.18,19.94,7.37,28.08ZM321.11,211.94c-3.8-5.44-10.17-4.53-15.27-6.98l10.02-2.39,5.49-5.11c1.7,1.61-2.03,8.37-5.17,7.25-.1,1.83,2.93.86,4.17,2.44.4.51,2.09,4.89.75,4.79Z"/>
      <path d="M105.22,78.66c4.54-4.14,7.74-10.7,6.16-16.92-1.18-4.63-9.51-6.81-11.15-1.03,2.79-.17,4.62-.19,6.49,2.06,5.74,6.86-4.04,17.09-10.12,19.96,2.82.32,6.64-2.26,8.62-4.07Z"/>
      <path d="M48.43,208.32l.52-5.69-6.21,3.1c2.32-.21,4.01,1.29,5.69,2.6Z"/>
      <path d="M182.01,44.46c.49,4.59-2.08,9.42-7.21,7.46,2.98,2.82,9.52,1.7,11.13-2.08,3.94-9.25-6.16-16.05-14.24-16.56,1.3,1.03,3.15,1.33,4.62,2.36,2.56,1.77,5.36,5.68,5.69,8.82Z"/>
      <path d="M95.05,328.48c2.11,1.55,4.61,2.23,6.74,3.86,5.01,3.85,10.45,12.33,3.88,17.37-1.08.82-2.36.65-2.85,1.54,4.61,1.72,8.94-1.08,9.28-6.03.52-7.69-9.61-16.59-17.05-16.75Z"/>
      <path d="M187.13,20.48C38.7,28.3-33.23,216.45,66.03,326.16c83.58,92.37,212.38,80.17,279.38-23.62C423.38,181.74,333.12,12.78,187.13,20.48ZM217.9,31.57c21.17-5.55,41.51,3.28,50.13,23.45l2.58-6.99c.84-.99,3.61-3.2,4.66-1.55-8.89,7.49-.16,24.35,7.02,30.28,1.31,1.08,4.05,2.9,5.42,2.87-5.62-5.1-11.52-13.88-6.21-21.23,5.55-7.69,16.2-2.53,13.73,6.48-.84,1.51-1.81-2.04-2.33-2.34-7.85-1.12-4.46,8.36-1.31,12.18,5.55,6.72,14.57,8.23,22.53,10.35-4.17-3.38-9.84-9.21-5.18-14.5,1.13,10.17,10.68,13.83,17.37,19.67,13.26,11.57,22.13,31.78,20.43,49.46-.3,3.17-1.75,6.32-1.54,9.59l4.92-24.35,1.28-1.02c.41,9-1.68,17.86-4.13,26.41,3.44-3.15,6.95-7.7,10.87-2.08-1.54.01-3.04-.21-4.53.4-3.11,1.26-12.04,14.1-12.04,17.48v11.65l1.7-9.96c2.2-6.99,10.24-14.49,17.64-9.64,3.52,2.31,4.05,6.18,2.96,10.04-1.05,3.75-5.92,7.86-7.27,2.31,6.26.47,6.75-9.15,1.05-10.63-5.37-1.4-10.09,3.1-11.4,8.04.86-2.6,10.23-5.84,9.31-1.82-.25,1.08-2.28.12-3.22.35-9.35,2.25-8.04,17.29-4.13,23.59,3.38,5.45,14.18,8.77,17.3,1.54,2.74-6.33-1.63-10.38-7.62-7.1l.28,3.63,1.39-.95,1.47.41.02,2.64c-8.33,2.28-7.53-9.48-.38-10.1,10.73-.93,12.39,18.61-1.73,18.75-11.72.11-17.87-11.85-19.36-21.96-1.5-10.21,1.3-22.68-4.39-31.86-1.41-2.27-3.52-3.31-5-5.36,9.19-1.4,9.56,10.19,10.51,16.42.08.53.14,2.06.88,1.95.39-5.97,1.52-11.86,1.06-17.88-.57-7.47-5.75-23.18-15.7-20.84-3.61.85-2.97,6.71-.23,6.03l1.93-.96-.25,3.11c-2.77,4.91-12.99-5.5-4.06-10.79,7.25-4.29,14.01,3.34,16.99,9.25l2.85,8.27c-.78-6.34-1.25-13.15-4.04-19-3.06-6.42-13.17-14.31-20.56-13.63-4.08.38-8.21,3.91-4.39,7.54,2.05.96,2.92-2.18,3.36-.81.29.91.62,2.81-.23,3.41-6.99,1.77-10.11-7.61-4.02-11.27,7.46-4.49,15.6-.19,21.08,5.29-4.95-8.45-19.23-15.7-28.86-12.56-2.41.79-3.21,2.93-5.31,3.75-.65-11.76,18.84-7.13,24.61-2.59,1.46.15.42-.64,0-1.04-7.49-7.2-21.91-5.89-31.57-8.31-6.93-1.74-14.69-5.77-19.98-10.57-6.68-6.06-13.59-19.33-24.33-16.84l.47-1.86c1.69-1.34,3.82-1.45,5.87-1.13,1.82.29,2.9,1.76,4.53,1.69-4.44-6.2-17.58-17.36-25.12-10.62-3.73,3.33-2.14,9.86,3,8.18,2.05-.67.79-3.53,2.17-2.99,1.93.75,1.69,4.44-.05,5.63-8.85,6.07-16.29-11.8-2.61-15.04,15.68-3.71,27.55,17.49,35.03,28.04-7.79-16.87-21.02-38.43-42.66-36.19-6.22.64-18.15,5.88-15.63,13.94,1.02,3.28,5.67,3.52,6.76-.02,3.59,10.66-11.85,12.63-15.88,3.45-4.31-9.82,3.3-16.83,12.11-19.14ZM197.33,24.98l4.84,6.89c-2.93,5.01-3.49,10.91-5.1,16.41l-5.09-16.75,5.35-6.55ZM25.13,187.87c1.15-12.16,17.06-7.92,13.59.64-1.46,3.6-7.65,3.65-5.31-1.19l3.12.29c.73-5.27-6.12-5.78-8.02-1.55-1.67,3.72-.52,7.53,3.37,9.06,14.62,5.74,23.69-20.39,11.75-27.81l-6.05-1.19c3.08-3.65,7.39-1.28,9.82,1.81-1.31-5.13-8.22-11.38-13.21-6.74-3.38,3.14-1.97,11.41,3.12,8.31l.75,1.25c-.8,3.63-4.45,2.93-6.41.25-3.62-4.95-1.79-12.61,4.46-14.11,8.29-1.98,14.1,8.11,15.31,15.06.29,1.68-.39,4.07.65,5.3,2.06-9.33-1.12-17.67-7.26-24.58-2.56-2.87-5.27-6.15-9.3-3.9,2.28-6.34,7.14-3.09,10.35.52-1.21-6.61-3.41-13.61-2.54-20.41.09-.68,1.44-6.19,2.54-4.96-.34,7.78.26,15.2,1.8,22.8.22,1.11.55,3.38,1.31,4.12-3.19-19.42-.09-41.16,13.49-56.17,5.82-6.43,17.38-12.06,21.31-19.61.46-.88,2.23-8.04,3.04-2.7.92,6.1-3.81,10.21-8.31,13.23,8.56-1.76,17.55-2.68,23.52-9.88,3.07-3.7,6.68-14.51-1.3-12.16-1.39.41-1.03,1.99-2.54,1.85-1.79-16.42,17.66-14.42,16.07,1.84-.45,4.64-3.95,9.39-7.27,12.41,1.4.14,4.19-2.17,5.45-3.36,6.07-5.72,12.56-18.88,8.31-26.97-.93-1.78-2.57-1.64-2.36-3.59,5.59.19,6.75,4.53,6.99,9.32,7.35-14.26,18.77-23.65,35.23-24.85,12.14-.88,32.05,2.63,28.61,19.29-1.93,9.37-18.52,9.21-17.49-1.69,2.33,1.17,3.45,4.55,6.44,1.52,5.38-5.46-4.4-13.23-9.44-14.85-22.56-7.23-39.19,14.96-46.72,33,7.7-10.64,17.9-29.08,33.79-26.29,10.28,1.81,9.28,18.05-.26,16.34-3.54-.64-4.9-5.58-2.19-6.62,1.19-.46.59,1.55,1.23,2.38,2.39,3.06,10.32-2.11,3.42-7.56-9-7.09-20.7,5.32-26.15,11.65l7.01-2.88c.95-.48,5.36,1.75,4.38,2.61-11.55-.28-17.98,12.89-26.14,19.7-16.62,13.87-33.65,5.76-50.26,17.07-.55,1.15.76.28,1.15.11,2.99-1.36,5.18-2.65,8.52-3.39,5.98-1.32,16.47-1.6,15.97,6.91-2.31-.91-2.33-3.02-5.05-4-9.19-3.32-22.62,2.83-28.09,10.48l7.78-4.13c4.53-1.87,11.35-1.7,14.49,2.57,2.68,3.64,1.79,10.13-3.37,10.15-5.39.02-3.3-5.65-1.82-4.7l.83,1.51,1.78-.21c3.56-5.43-3.38-7.93-7.98-7.46-13.25,1.34-21.33,19.07-20.51,31.01l4.96-10.83c3.5-4.56,9.98-8.89,15.49-4.71,5.25,3.97,1.08,15.46-5.19,9.85v-2.09s1.3-.18,1.3-.18l1.94.86c5.07-6.15-3.49-8.53-8.4-5.33-10.04,6.54-10.18,29-8.02,39.36l1.26-9.87c.46-3.18,3.49-9.45,6.88-10.22,1.3-.3,3.35-.43,3.25,1.44-.6.03-1.43.08-1.92.4-13.43,8.77.31,41.67-17.5,54.5-7.65,5.51-20.49,3.28-19.42-8.03ZM24.08,205.97l1.31-2.83c4.54-.44,10.1.59,14.5,0,1.08-.15,3.83-1.26,4.94-1.79,1.44-.69,3.93-3.44,5.18-2.64,2,1.29,2.49,11.54-.33,13.2-3.25-1.58-5.49-4.06-9.32-4.58-4.13-.55-11.74,1.52-14.22.76-.88-.27-1.96-1.12-2.06-2.12ZM182.06,373.01c1.96-1.35,3-3.02,1.5-5.38-4.06-6.39-16.9,2.38-21.19,4.08-12.93,5.13-32.68.23-37.8-13.71-.27-.26-3.92,5.96-6.21,2.84,4.18-1.56,3.51-8.5,2.87-12.19-.73-4.24-4.84-10.37-8.05-13.19-1.06-.93-3.56-2.87-4.66-2.59,4.59,4.19,7.67,9.58,5.56,15.92-2.95,8.82-15.14,7.27-15.4-1.67,1.22-.25,1.52,1.23,2.44,1.48,2.08.55,4.32-1.38,4.68-3.42,1.83-10.54-15.94-17.43-24.21-18.26,3.2,3.02,6.47,6.59,4.92,11.39-4.74-9.74-14.99-13.75-22.04-20.95-13.46-13.73-18.74-34.84-16.04-53.63l-3.76,19.8-1.42,1.95v-11.65c0-3.67,3.51-10.35,4.14-14.24-2.63,4.13-8.96,7.79-11.9,2.07,4.28,1.34,8.61-3.13,11.14-6.21,5.36-6.54,6.55-12.57,5.94-20.97-.06-.84-.31-3.42-1.03-3.89-.26,2.69.35,5.94,0,8.55-.71,5.26-6.76,14.83-12.66,14.78-8.55-.07-11.53-11.57-4.14-15.57l2.52.57.81,2.55c-5.72-3.45-6.88,6.43-2.26,8.74,5.15,2.57,11.11-3.34,12.1-8.22-1.44,1.29-2.41,3.53-4.51,4.03-2.26.54-4.51.33-5.84-1.7l5.83-.9c10.57-5.02,5.71-31.77-10.12-28.76-6.74,1.28-8.02,12.97-.12,12.87,3.26-.04,4.46-1.66,3.36-4.71l-3.62.52c-1.34-4.11,4.65-4.01,5.83-1.43,3.8,8.28-11.29,12.28-13.37,2.5-3.06-14.36,13.43-16.52,22.06-7.55,11.76,12.23,5.06,30.51,9.17,44.69,1.03,3.56,3.08,8.99,7.39,8.93l-.02,1.52c-5.82,1.79-9.16-5.02-10.1-9.78l-1.26-9.86c-2.43,10.36-1.45,35.47,10.72,39.77,9.95,3.51,10.58-9.25,2.23-5.59l-.16-1.92c.89-2.13,4.69-2.19,6.36-.91,2.8,2.79,3.18,7.78-.02,10.32-6.14,4.86-13.28-.71-16.75-5.98l-4.45-9.79c.21,10.97,6.62,26.01,18.01,29.37,5.07,1.5,14.16,1.28,11.26-6.08l-1.54-.53-2.87,1.58c-.91-2.22-.57-4.34,1.93-5.09,5.5-.99,9.99,8.91,1.88,12.8-7.37,3.54-14.74-.68-20.14-5.63-.33.9,1.94,3.52,2.83,4.42,6.57,6.61,23.39,15.89,29.54,4.63,1.15-.82,2.51,4.49-1.71,6.59-4.39,2.19-12.81.83-17.28-1.05-1.94-.82-3.19-2.06-4.82-2.95-.86-.47-1.59-.53-.53.53,9.52,9.07,22.22,6.79,33.78,9.73,8.81,2.24,16.23,6.76,22.15,13.59,4.13,4.76,7.78,14.71,15.48,12.09l-.96-3.55,3.1-.29c3.27,3.32-.66,7.76-4.46,8.03-2.28.16-2.55-1.43-4.33-1.28,5.41,9.12,20.76,17.79,30.83,11.67,6.45-3.92.71-12.25-4.39-6.95l1.52,2.02-.81,1.28c-3.92,1.04-6.21-8.9,3.67-7.77,5.35.61,6.78,6.68,4.39,10.88,1.83-.49,3.17-1.89,5.07-2.43,4.46-1.27,13.08-1.26,15.03,3.86,1.29,3.38-1.55,6.99-5.07,5.3ZM71.13,268.75c-41-90.77,14.04-203.85,117.55-208.91,128.99-6.3,191.18,144.03,115.06,240.92-64.95,82.67-190.28,61.72-232.62-32ZM368.25,225.94c-4.52,10.4-21.36-.8-9.32-5.74l1.59.52.13,2.55-3.03.07.52,3.37c11.81,3.24,10.51-13.81-1.76-12.13-13.92,1.91-16.32,32.23.22,29.22-2.14,4.09-6.79,3.2-9.59.26-.29,1.85,3.77,5.7,5.59,6.33,6.28,2.15,11.4-3.76,7.11-9.18l-3.37-.25c-1.72-.49,2.25-5.75,6.05.16,4.22,6.56-1.94,14.19-9.33,12.43-4.73-1.12-8.38-6.98-9.9-11.33l-1.06-10.07c-1.51,9.42-.63,17.29,5.68,24.61,2.03,2.35,6.8,7.51,9.85,4.91l-1.07,2.29c-3.43,2.12-6-.49-8.76-2.29,1.91,7.77,4.12,16.55,1.54,24.34-2.2-2.12-.49-6.71-1.04-9.57l-3.61-15.29c1.2,10.44,2.33,19.7-.27,30.04-2.31,9.2-9.47,20.65-16.05,27.46-6.66,6.89-16.93,10.07-20.72,19.67-.81-3.15-.09-6.85,2.13-9.27.88-.96,2.3-1.1,2.79-2.12-8.39-.27-27.24,8.71-23.94,19.02.69,2.16,2.11,3.16,4.41,2.74l1.15-1.57,1.27.83c-2.07,9.45-14.6,9.18-15.53-1.06-.56-6.12,1.62-10.66,6.23-14.53.08-.39-.53-.35-.76-.25-7.58,3.12-17.02,19.69-12.1,27.11.84,1.26,2.17.97,1.99,2.4-6.51-.02-7.98-6.64-5.84-11.79l4.03-9.43c-8.88,11.81-14.85,31.61-32.64,32.61-12.25.69-19.14-12.12-30.33-4.95-1.05,2.2-.85,3.66,1.07,4.95l-3.08.27c-2.5-1.7-2.03-5.33-.04-7.28,4.48-4.41,13.9-3.32,18.66.28-3.04-5.92.43-12.14,7.39-10.75,4.67.93,6.04,7.61.38,7.64l.93-4.04c-6.04-3.63-10.26,3.33-4.22,7.59,7.46,5.25,19.21.31,25.05-5.33,1.26-1.22,6.13-7.43,6.71-8.83.1-.24.14-.85-.25-.76-3.31,5.55-13.89,3.45-9.59-3.38,4.26-.39-.02,1.78,1.56,3.12,3.23,3.37,9.77-4.43,11.93-6.72,8.69-9.21,10.32-13.32,23.54-17.37,11.33-3.47,23.55-1.65,33.43-8.53,1.05-1.11.33-.89-.57-.57-5.34,1.86-16.5,5.5-21.23.6-2.03-2.11-1.26-6.22.03-4.96.91,4.88,8.27,5.04,12.17,4.65,4.69-.47,11.28-3.86,14.94-6.81,1.24-1,5.51-5.23,6.04-6.39.1-.22.13-.85-.25-.77-4.65,5.8-17.44,10.75-22.8,3.63-3.78-5.02.77-13.44,6.21-8.28.52,1.05.53,2.68-.75,3.09l-.85-1.5c-4-1.43-5.69,5.62.61,6.64,17.14,2.78,27.42-19.22,26.11-33.63-.94.98-.44,3.18-.74,4.69-1.53,7.65-8.13,18.72-17.39,16.3-2.31-.6-5.71-4.29-5.71-6.75.01-5.29,8.11-9.28,8.83-2.85l-4.14-.27c-3.64,1.89.38,10.68,8.47,5.37,10.22-6.72,10.11-28.19,8.48-38.87-.08-.54-.14-2.06-.89-1.96-.3,3.36.41,7.35,0,10.62-.55,4.34-4.91,13.19-10.33,11.1l-.03-1.51c1.65.03,2.55-.72,3.62-1.83,10.91-11.32-.99-35.47,12.45-51.26,9.63-11.31,27.92-5.08,22,8.54ZM368.65,207.7c-6.6.13-11.24-1.87-17.76.88-1.56.66-6.04,4.79-7.23,3.87-1.31-4.59-3.02-10.66.82-14.45,5.67,5.33,10.82,5.09,18.08,5.17,2.77.03,8.03-1.81,7.4,3.23l-1.31,1.3Z"/>
      <path d="M188.68,62.94c-103.33,6.05-157.89,120.89-112.37,209.95,49.12,96.1,179.34,103.51,235.63,10.17,58.23-96.55-5.46-227-123.26-220.11ZM235.28,337.94c-83.07,25.61-161.25-35.54-169.23-119.01-6.98-73.06,43.95-146.41,120.04-150.29,39.31-2.01,69.32,6.78,98.51,33.24,75.65,68.59,49.28,205.65-49.33,236.05Z"/>
      <path d="M187.13,8.05C52.02,14.48-32.29,167.95,26.23,287.76c61.2,125.31,215.5,153.66,310.43,46.42C448.73,207.57,358.17-.1,187.13,8.05ZM35.81,285.94C-20.91,173.15,57.38,24.82,185.57,17.37c152.57-8.86,244.78,170.52,157.97,293.15-83.87,118.47-243.49,103.2-307.74-24.57Z"/>
      <path d="M196.9,0C88.16,0,0,91.21,0,203.73s88.16,203.73,196.9,203.73,196.9-91.21,196.9-203.73S305.65,0,196.9,0ZM22.61,287.23C-36.69,163.75,54.19,4.82,193.34,3.9l17.96.37c151.91,13.28,229.88,192.27,140.52,316.08-90.96,126.05-263.37,104.01-329.22-33.12Z"/>
      <path d="M345.2,201.07v7.25c2.84-1.4,4.86-3.4,8.29-3.37-1.54-.4-2.94-.15-4.53-.66-1.93-.61-2.5-2.02-3.76-3.23Z"/>
      <path d="M282.24,345.6c.4,4.26,4.39,8.11,8.57,5.4-9.48-3.78-4.73-13.49,1.31-18.37,2-1.62,4.42-2.64,6.46-4.15-7.59.95-17.12,8.9-16.34,17.12Z"/>
    </g>
  </g>
</svg>