<?xml version="1.0" encoding="UTF-8"?>
<svg id="Layer_2" data-name="Layer 2" xmlns="http://www.w3.org/2000/svg" viewBox="0 0 987.81 1022.07">
  <defs>
    <style>
      .cls-1 {
        fill: #797979;
      }
    </style>
  </defs>
  <g id="Layer_1-2" data-name="Layer 1">
    <g>
      <path class="cls-1" d="M711.28,288.7l-18.17-16.87c2.82,10.5,4.97,19.59,18.17,16.87Z"/>
      <path class="cls-1" d="M475.61,569.16c-7.2,1.23-12.8,11.39-14.41,17.89-.73,2.94-1.34,4.17,1.3,6.09,6.23,4.53,13.78,3.56,19.57-1.17,1.29-1.05,5.12-5.35,5.45-6.82.8-3.57-.77-9.89-3.02-12.78-2.3-2.96-5.17-3.84-8.89-3.21Z"/>
      <path class="cls-1" d="M690.51,760.28c2.45-1.91,21.08-18.92,19.46-20.78-10.8,1.86-17.56,10.11-19.46,20.78Z"/>
      <path class="cls-1" d="M299.48,851.22c2.39,5.88,6.36,10.55,8.77,16.55,7.28,18.15,2.83,27.05,18.96,42.74,12.62,12.28,30.76,19.76,48.28,21.22,2.46.2,9.56,1.11,11.01-1.26-50.75.95-60.37-48.29-87.02-79.26Z"/>
      <path class="cls-1" d="M295.55,273.12c-1.6,1.91-19.99,15.15-18.16,16.88,11.48.82,16.21-6.17,18.16-16.88Z"/>
      <path class="cls-1" d="M276.08,739.51c2.07,2.59,21.51,23.71,23.38,22.06-3.99-13.14-8.4-21.13-23.38-22.06Z"/>
      <path class="cls-1" d="M550.18,130.86c-14.53,1.13-20.02-6.75-18.2-20.81,1.51-11.66,13.73-19.86,22.11-26.58-12.65,2.88-25.5,7.67-31.01,20.29-8.67,19.86,6.73,38.5,27.11,27.11Z"/>
      <path class="cls-1" d="M750.25,208.15c-4.3-3.48-9.66-5.14-14.17-8.54-16.81-12.7-34.15-47.03-1.41-48.62-5.39-9.52-19.13-7.9-24.48.86-12.38,20.27,18.71,55.65,40.07,56.3Z"/>
      <path class="cls-1" d="M478.48,178.67c-258.24,11.58-384.06,306.11-256.2,519.14,113.63,189.33,375.71,213.41,515.49,38.95,177.81-221.92,38.52-571.44-259.29-558.09ZM771.26,361.89c12.25,27.38,36.37,99.21,27.75,126.93-6.98,22.45-39.57,17.04-37.1-5.9,1.6-14.93,25.1-12.04,16.27,1.94l-4.05-6.38c-12.25-4.28-8.02,24.82,10.86,17.11,14.14-5.78,4.11-29.72-2.46-38.44-2.58-3.43-7.23-4.2-7.59-8.63l12.36,6.46,8.4,15.61c.48-12.74-7.95-37.84-22.88-38.92-10.46-.76-11.69,12.72-4.38,15.57l-2.14,2.45c-13.05,2.72-12.45-31.73,13.06-21.85,5.4,2.09,7.18,6.89,11.15,10.27-2.45-13.31-9.42-27.88-20.16-36.34-6.86-5.41-13.22-6.07-20.1-10.41,10.73-4.13,20.76,1.51,27.93,9.07.97.21.87-1.33.63-1.92-3.55-8.48-22.5-33.89-32.04-34.12-2.42-.06-3.62,1.51-5.6,2.27l1.81-6.62c10.35-4.8,18.35,3.75,24.82,10.51-1.37-7.57-8.39-17.35-13.36-24.31-9.07-12.7-24.05-31.37-41.19-31.63-10.71-.16-18.09,4.7-13.77,16.1l6.24,1.26,4.89-6.87c9.63,10.27-8.78,18.98-16.21,8.43-10.85-15.39,10.59-31.74,25.6-24.29l23.75,15.21c-8.33-8.02-15.79-20.58-26.9-25.07-10.12-4.08-17.25-.86-24.03-12.34-9.69-16.4-6.71-21.97-24.4-36.66-1.51-1.25-8.31-7.4-7.8-2.6,8.45,9.24,15.33,21.9,12.67,34.79-2.62,12.74-20.65,14.06-19.17,8.12.53-2.12,9.18-2.2,11.1-8.4,6.36-20.56-24.12-49.01-42.28-54.62,8.18,8.97,22.9,22.69,15.84,35.97-5.94,11.16-21.57,7.17-19.73-.23,1.18-4.79,7.63,2.93,10.41.02,4.56-5.49,2.64-11.32.01-16.96-8.87-18.99-43.54-32.54-63.68-30.49l19.81,5.5c9.84,3.46,26.3,12.4,32.14,21.13,1.66,2.49,5.04,7.35,0,7.81-16.06-24.12-64.19-39.5-88.77-22.55-21.82,15.05-9.65,49.57,13.77,44.97,14.67-2.89,12.41-24.37,2.91-24.51l-3.93,1.4,1.81,6.08-1.99,2.84-6.95-.45c-10.71-19.4,20.39-22.54,25.1-4.32,8.15,31.48-37.53,35.93-46.88,6.62-9.73-30.49,20.85-48.94,47.08-51.06,82.47-6.67,179.66,81.6,211.37,152.47ZM658.52,626.92l17.37-21,19.78,17.72c.01.27-1.99,2.78-2.39,3.28-3.93,4.87-8.9,9.91-12.46,14.93-.23.33-.68,1-.6,1.37,2.54,2.36,4.98,4.86,7.53,7.21,1.89,1.74,4.06,3.35,5.94,5.1,1.41,1.3,2.71,3.29,4.49,3.9l-17.38,21.66-18.98-17.42,15.06-19.98-18.36-16.76ZM653.22,579.48c2.17,29.61-6,72.28-34.23,88.05-12.45,6.95-25.02,8.06-38.76,9.9-14.31,1.91-28.95,4.67-43.35,5.31-1.97.09-3.98-.1-5.95-.01l.02-3.66c11.88-2.2,23.95-4.37,35.26-8.69,25.36-9.68,57.65-35.3,70.97-59.05,4.31-7.69,9.46-19.71,9.9-28.53.11-2.3-.89-4.84-.84-7.17-.22-.24-5.22,2.09-6.02,2.36-12.35,4.17-29.18,4.62-33.46-10.52-2.21-7.83-.91-24.6.24-32.91.79-5.7,2.66-10.69,9.17-11.27,11.08-1,20.2,6.18,25.91,15l3.55,6.68c.52.13.7-.34,1.02-.61,4.77-4.08,12.75-14.59,14.63-20.53,1.01-3.21-.03-6.75-.92-9.93-3.4-12.18-11.46-23.07-18.95-32.97-.07-1.74-.16-3.52-.09-5.26.31-7.25,1.18-15.26,2.5-22.44.14-.75.84-4.74,1.4-4.73,7.93,12.5,16.01,25.18,20.13,39.55,5.41,18.82,4.55,40.23-.91,58.97-2.49,8.54-6.16,17.2-12.02,23.96l.79,8.52ZM517.71,731.69l-15.58,9.77-9.09,20.12c-1.65-15.97-10.67-23.25-22.1-32.45l15.58,3.88c.46-5.99,1.74-11.94,3.88-17.55.57-1.49,2.36-8.2,4.55-7.11,4.52,7.13,6.28,16.36,5.88,24.67,4.91-4.48,12.48-8.22,16.87-1.32ZM506.37,613.81c-8.1,5.94-17.52,10.82-27.79,11.06-16.45,18.39-39.94,32.05-62.86,41-47.64,18.6-118.96,19.02-124.86-46.29-1.38-15.27-3.03-35.33,3.62-49.57,11.99-25.65,49.4-37.3,73.15-49.51,18.66-9.59,34.41-20.23,46.51-37.72,5.98-8.64,10.64-18.25,14.54-27.99l-.02-.99-22.47-10.66,10.24-25.33,24.51,11.45c.54.52-4.5,11.55-5.1,13.07-7.88,19.65-12.59,40.52-24.97,58.03-14.77,20.88-39.99,33.55-62.46,44.67-18.29,9.05-42.03,17.58-50.38,37.94-4.26,10.38-4.68,18.92-.28,29.31,7.23,17.08,23.42,27.9,41.29,31.5,35.63,7.18,80.79-7.32,111.46-25.72,1.46-.88,4.95-2.8,6-3.82.28-.27.41-.38.44-.82.06-1.02-.99-3.99-1.22-5.35-1.83-10.82-1.47-22.63-.46-33.5,1.05-11.23,4.23-25.26,11.87-33.92,8.1-9.17,19.17-4.01,23.94,5.51,4.89,9.76,3.83,30.31,2.63,41.08-.11.98-1.18,5.5-.8,5.95,1.28-.59,2.67-.98,3.96-1.55,13.24-5.85,23.82-19.32,27.82-33.1,1.59-5.49,2.33-11.2,2.56-16.86l3.68-.41,1.23,21.67c1.32-.63,1.99-2.09,2.86-3.07,6.99-7.97,13.89-17.09,16.58-27.57,2.1-8.17,1.31-15.9.19-24.13l2.47-.24c.36.27.83,2.07,1.02,2.67,1.94,6.45,2.65,13.4,3.47,20.04,1.38-1.34,2.59-3.13,3.61-4.77,2.58-4.16,5.02-9.34,6.42-14.03,2.92-9.77,2.1-19.8-.23-29.62l2.27-1.46c.44.32.61.75.82,1.22,2.5,5.63,4.89,13.61,6.55,19.62,7.06,25.58,4.3,44.21-15.95,62.15-1.38,1.22-5.12,3.54-5.95,4.68-1.42,1.96-2.64,5.12-4.13,7.32-7.38,10.88-18.68,20.68-31.85,23.35-3.3,5.82-8.56,10.77-13.92,14.7ZM495.61,331.57c-2.91.69-2.11-.44-2.98-1.61-4.66-6.31-5.25-15.51-4.81-23.06l-15.57,2.58,14.84-11.77,7.25-19.39,9.08,21.42,12.99,7.16-2.14,5.29-13.44-6.6c1.22,9.9-1.27,17.24-5.23,25.98ZM490.42,390.25c13.16,9.74,19.39,21.89,23.45,37.47.13.49.1,1.63.7,1.55.13-1.83.27-3.67.43-5.5,1.07-12.54-.62-20.77-7.61-31.26-5.84-8.76-15.13-15.96-16.92-26.83-1.3-7.88-.15-21.13,8.15-24.92,7.65-3.5,14.73-.06,21.08,4.28.08.89.49,1.83.57,2.7.34,3.32.66,6.89.85,10.18.08,1.42-.09,2.89-.02,4.31-4.05-2.96-8.59-5.43-13.49-6.75-3.54-.95-8.83-2.11-11.24,1.45-2.53,3.75,2.01,9.13,4.27,12.05,11.46,14.76,22.09,24.3,19.61,44.94-2.3,19.21-16.88,39.54-15.12,58.49.49,5.34,5.06,13.42,11.35,10.09,2.69-1.42,5.54-7,6.25-9.9,1.65-.24,2.59,1.57,2.45,3.04-.28,2.91-3.25,9.36-4.96,11.83-6.32,9.15-16.01,7.33-20.06-2.72-3.88-9.62-.04-21.4,3.44-30.65,2.6-6.91,6.23-13.41,8.73-20.34-2.95-4.42-4.86-9.45-7.82-13.87-2.3-3.42-6.35-8.43-9.62-10.83-2.56-1.88-5.46-3.15-8.56-3.91.35,1.67.26,3.36.49,5.03.06.47.86.77-.28.69-4.57-3.71-10.02-6.72-15.73-8.19l-.85-14.07-1.61-10.44c7.61,3.49,15.3,7.08,22.06,12.08ZM562.48,634.63c3.94,8.54,13.38,3.22,15.08-3.83,2.77.41,1.31,3.56.61,5.32-1.49,3.76-5.17,9.79-8.91,11.53-7.99,3.72-13.72-3.02-14.58-10.53-1.18-10.27,2.23-18.27,6.85-27.04,2.91-5.51,6.3-10.87,9.69-16.07l1.4.84c.27,1.22-.78,2-1.28,2.96-4.81,9.19-13.52,26.73-8.86,36.82ZM550.89,195.12c4.94.12,15.72,1.18,18.79,5.25h-22.73c-43.79,0-59.75,71.15-27.88,90.24,3.52,2.11,21.28,4.29,10.96,8.49-13.69,5.57-25.59-11.19-29.56-22.37-13.7-38.61,5.42-82.67,50.42-81.6ZM495.61,183.49c7.85,14.15,5.38,27.86-1.92,41.56-5.96-11.23-12.02-34.08,1.92-41.56ZM423.29,197.59c42.18-12.07,71.42,19.46,68.49,60.63-.86,12.08-8.04,37.76-21.78,40.58-2.54.52-15.75,1.7-14.63-2.92,14.11-4.25,19.57-5.97,25.3-20.19,10.52-26.1,4.93-57.49-22.24-69.94-2.35-1.07-13.81-5.38-15.4-5.38h-22.73c-.6-3.74.81-2.15,3-2.78ZM247.72,312.96c40.61-53.24,133.52-127.41,204.62-97.23,40.08,17.01,28.9,74.21-9.41,62.67-22.89-6.89-14.64-40.71,3.64-37.51,9.95,1.74,15.94,16.88,2.99,17.96l-4.3-3.26,1.04-6.54c-12.32-7.77-17.05,25.35,5.75,24.13,20.26-1.08,23.83-24.1,13.68-38.37-21.16-29.73-78.98-8.32-97.41,16.23,1.22-16.48,20.74-23.04,33.43-29.57l19.82-5.5c-19.53-2.51-64.49,15.92-65.01,38.36-.31,13.34,12,6.32,12.97,11.8-5.03,9.67-16.57,3.25-19.46-5.29-4.99-14.72,9.72-27.05,19.54-35.78-18.74,3.4-48.76,33.55-48.11,52.55.27,7.89,5.24,12,13.03,11.09,2.82,2.29-10.91,11.85-17.62-2.52-6.9-14.79,1.24-28.74,11.12-39.71.21-.96-1.36-.89-1.92-.63-3.12,1.43-18.4,16.27-20.72,19.56-4.56,6.46-5.61,14.5-9.11,20.77-8.18,14.66-35.6,10.64-43.58,30.47l24.01-9.02c26.58-.35,23.39,34.48,4.21,30.19-6.81-1.52-8.68-11.09-.96-12.73.4,15.15,17.11,3.48,7.83-7.18-14.31-16.45-42.43,13.87-50.67,24.74-2.63,3.47-14.87,21.86-15.6,24.68-.18.7-.37,2.12.62,1.92,5.96-6.95,22.58-17.46,26.63-3.9-19.48-1.96-32.01,18.4-38.95,33.78,7.75-7.18,16.82-12.24,27.26-7.15-20.03,6.9-34.81,22.52-38.95,43.53,6.79-6.26,12.35-11.16,22.45-8.81,10.33,2.4,14.22,21.25,1.6,23.1-3.75-2.86,2.21-4.72,1.91-9.65-.59-9.77-10.07-9.46-16.81-5.23-11.66,7.33-14.77,24.41-15.64,36.95,2.68-2.76,2.75-7.88,4.67-11.55,3.59-6.85,9.17-11.94,17.4-10.51-12.63,6.56-20.41,25.4-16.31,39.03,5.81,19.3,38.9-.03,18.43-10.27l-5.35,6.29-2.09-4.53c-.02-9.5,17.11-9.42,19.33,2.92,3.89,21.58-34.68,32.15-39.68.66-7.7-48.58,30.27-132.42,59.66-170.94ZM196.83,516.04c-1.09-2.74-5.83-2.35-8.27-4.05-3.41-2.37-9.85-13.92-2.14-14.11,2.96,8.63,13.44,12.5,21.8,13.94,2.14.37,14.75-.81,13.29,2.27-12.58,6.86-29.31,2.78-37,18.85-5.02-7.24,4.08-17.54,12.33-16.9ZM248.27,717.3c-28.35-37.61-64.96-119.74-60.57-166.86,3.51-37.66,48.13-25.38,38.03.36-4.18,10.65-20.32,8.48-17.19-4.86,15.05,18.54,18.87-13.84.66-13.08-18.73.78-13.37,29.27-4.55,39.68,3.06,3.61,8.25,5.07,9.06,9.77-10.77.12-18.26-9.91-20.8-19.47-2.31-.32-1.24,2.88-.98,4.22,2.06,10.61,12.7,29.6,24.99,29.61,12.97.01,3.79-14.82,4.59-15.64,9.76.11,11.05,14.19,4.57,19.51-11.08,7.23-20.29-.21-27.95-7.82,3.03,18.56,19.89,42.01,40.26,41.59-7.83,12.87-22.49.56-29.24-7.8-.97-.21-.87,1.33-.63,1.92,3.55,8.53,22.98,35.14,32.14,36.87,4.23.8,10.06-6.4,7.27,4.12-12.34,4.67-18.26-3.12-26.42-10.43,6.3,14.84,29.13,48.51,43.85,54.22,8.53,3.31,21.62,2.26,23.6-8.2,2.19-11.59-10.01-11.28-10.32-.56-12.77-13.96,14.57-20.88,17.71-3.94-3.09,30.06-33.81,23.76-48.23,5.25-.67,3.02,3.95,7.68,5.82,9.77,3.72,4.18,9.89,9.82,14.73,12.55,7.73,4.37,19.96,5.37,25.64,10.73,6.75,6.37,8.2,21.11,13.67,29.21,1.93,2.86,18.16,18.39,20.72,19.56.56.26,2.13.33,1.92-.63-9.23-9.39-20-30.77-13.53-43.42,3.78-7.38,18.69-11.27,16.08-3.41-.92,2.77-9.81.76-10.43,11.77-.8,14.23,11.94,31.4,22.16,40.26,6.44,5.58,16.97,13.17,24.69,14.29-10.94-10.61-24.67-23.2-19.18-39.98,3.57-10.92,19.37-17.77,20.49-3.55-18.66-1.62-15.75,14.76-8.86,26.4,10.08,17,38.28,29.53,57.52,30.81,1.73.12,8.1.98,8.49-1.33-17.3-.96-42.44-11.57-53.22-25.38-2.52-3.23-8.95-11.63-2.62-12.98,10.9,27.93,79.74,49.83,96.4,21.08,11.76-20.29-11.69-44.5-26.93-32.13-7.28,5.91-6.47,20.29,4.57,19.52-.14-15.42,19.12-5.77,9.16,4.59-17.26,17.94-40.41-30.72-9.83-34.5,35.03-4.33,48.29,48.06,8.44,62.99-69.66,26.1-166.49-52.55-205.76-104.66ZM445.64,839.6c-2.87.07-16.21-1.33-17.56-2.68-.65-.64-.3-3.51,1.92-2.58,19.36,1.26,46.49-7.15,53.67-26.89,7.04-19.34-2.79-60.16-28.33-60.15l.77-4.01c28.38-6.66,37.85,36.06,35.59,56.61-2.38,21.69-24.71,39.17-46.07,39.71ZM493.68,847.3c-8.55-9.5-7.04-24.87-2.08-35.82.69-1.53-.6-2.34,2.71-1.83,1.96,12.24,11.68,27.99-.64,37.65ZM558.68,838.27c-8.76,3.12-29.39.24-37.97-3.69-27.4-12.57-32.71-59.2-14.65-81.4,5.32-6.54,21.74-17.77,27.23-6.56-2.24,3.07-6.17,1.4-9.12,2.59-14.13,5.67-21.09,20.4-22.11,35.05-2.68,38.59,24.32,50.86,58.52,51.38.44,3.45-.19,2.02-1.9,2.63ZM794.04,598.16c-12.76,57.34-43.58,112.06-84.52,153.87-36.55,37.32-132.53,101.19-183.92,64.69-28.02-19.91-11.59-66.76,19.39-55.76,18.6,6.61,17.27,34.9-3.34,35.62-19.96.7-7.04-29.08,2.7-7.74,17.22-10.31-.34-29.95-16.68-20.56-14.75,8.48-12.83,32.11,1.32,41.15,25.22,16.11,75.61-4.58,88.12-30.93,2.87,1.92,1.21,2.41.77,4.61-3.71,18.5-36.99,34.49-54.67,35.65-.32,2.24,3.06,1.37,4.5,1.26,18.7-1.38,41.82-11.44,54.78-25.13,11.04-11.66,16.76-35.37-6.02-32.01.68-13.46,16.55-7.25,21.03,1.7,8.12,16.18-5.79,31.36-17.15,41.17,16.87-6.19,44.3-30.34,45.38-48.89.64-10.93-3.11-14.88-12.88-18,5.56-6.34,12.54-3.71,16.64,2.81,10.35,16.45-1.94,30.86-10.18,44.59,8.37-4.87,17.46-12.62,22.63-20.88,3.89-6.22,5.12-13.07,8.33-18.95,8.01-14.68,23.19-12.27,35.97-23.79,3.61-3.25,10.27-10.49,10.37-14.31-9.08,8.74-19.19,16.15-32.55,11.75-12.53-4.13-18.44-23.47-4.85-29.67,13.53-3.24,17.01,11.24,11.39,14.01-3.26,1.6-.53-6.22-5.46-7.6l-4.26.43c-10.03,5,.35,23.17,20.37,15.22,10.66-4.23,42.1-39.64,44.56-50.29.17-.73.38-2.11-.62-1.91-4.95,7.12-21.97,18.03-24.04,3.9,17.05.48,29.91-17.69,33.76-32.48-6.52,5.23-13.93,10.29-22.61,6.62l-.77-4.01c19.15-1.01,34.19-22.57,35.74-40.27-4.6,7.41-13.27,10.78-21.81,8.8-11.64-2.7-8.46-23.35-.3-21.8l-.43,15.39c14.9,5.7,28.04-15.18,28.37-28.37-3.23,4.07-5.12,8.53-9.95,11.46-2.83,1.71-6.84,4.6-9.52.87,11.59-5.39,19.51-21.11,18.22-33.78-1.85-18.3-27.39-15.58-24.73-.07l2.59,3.99,5.71.5,4.68-3.75-.18,6.95c-21.64,11.44-24.8-23.79-4.39-26.47,36.52-4.8,23.03,50.02,18.48,70.43ZM805.47,531.61c-9.54-13.64-25.52-11.36-38.3-17.51l25.15-6,13.78-12.83c4.27,4.03-5.09,21-12.98,18.19-.24,4.58,7.35,2.15,10.46,6.12,1.01,1.29,5.25,12.26,1.88,12.03Z"/>
      <path class="cls-1" d="M263.92,197.3c11.39-10.38,19.41-26.83,15.44-42.44-2.95-11.61-23.85-17.09-27.97-2.58,6.99-.43,11.58-.47,16.28,5.17,14.39,17.22-10.13,42.87-25.39,50.06,7.07.81,16.65-5.67,21.63-10.21Z"/>
      <path class="cls-1" d="M121.47,522.55l1.31-14.28-15.59,7.77c5.82-.53,10.06,3.23,14.28,6.51Z"/>
      <path class="cls-1" d="M456.55,111.51c1.22,11.51-5.22,23.62-18.08,18.72,7.49,7.07,23.88,4.26,27.92-5.22,9.89-23.2-15.45-40.26-35.71-41.55,3.27,2.6,7.89,3.35,11.6,5.92,6.41,4.45,13.44,14.26,14.27,22.13Z"/>
      <path class="cls-1" d="M238.41,823.96c5.3,3.88,11.57,5.59,16.92,9.69,12.56,9.65,26.21,30.92,9.72,43.57-2.7,2.07-5.93,1.64-7.15,3.87,11.56,4.32,22.43-2.71,23.28-15.12,1.32-19.28-24.11-41.62-42.77-42.01Z"/>
      <path class="cls-1" d="M469.39,51.36C97.08,70.99-83.35,542.94,165.62,818.13c209.64,231.71,532.74,201.09,700.79-59.26,195.58-303-30.82-726.82-397.03-707.51ZM546.58,79.19c53.1-13.92,104.12,8.22,125.74,58.81l6.46-17.54c2.1-2.49,9.05-8.01,11.68-3.88-22.31,18.79-.41,61.09,17.6,75.96,3.29,2.72,10.16,7.28,13.6,7.19-14.1-12.8-28.88-34.82-15.57-53.26,13.93-19.3,40.63-6.34,34.44,16.25-2.1,3.78-4.55-5.11-5.85-5.88-19.7-2.81-11.19,20.98-3.28,30.55,13.93,16.86,36.56,20.66,56.52,25.96-10.47-8.49-24.67-23.1-13.01-36.36,2.83,25.5,26.78,34.69,43.57,49.33,33.26,29.01,55.52,79.72,51.26,124.07-.76,7.95-4.38,15.86-3.86,24.05l12.35-61.09,3.22-2.55c1.04,22.58-4.22,44.79-10.37,66.25,8.62-7.91,17.42-19.32,27.27-5.21-3.86.03-7.63-.52-11.36,1-7.8,3.16-30.21,35.37-30.21,43.84v29.23l4.25-24.98c5.51-17.54,25.68-36.36,44.25-24.18,8.82,5.79,10.15,15.49,7.42,25.18-2.64,9.4-14.85,19.71-18.25,5.79,15.71,1.19,16.94-22.95,2.63-26.67-13.48-3.51-25.32,7.79-28.61,20.16,2.15-6.52,25.65-14.64,23.36-4.56-.62,2.7-5.71.31-8.09.88-23.45,5.64-20.16,43.36-10.36,59.16,8.48,13.67,35.56,22.01,43.39,3.88,6.86-15.88-4.08-26.03-19.12-17.8l.7,9.1,3.48-2.37,3.68,1.03.05,6.62c-20.9,5.71-18.89-23.77-.95-25.33,26.91-2.34,31.09,46.69-4.33,47.03-29.39.28-44.82-29.73-48.56-55.08-3.77-25.62,3.25-56.9-11.01-79.92-3.53-5.69-8.84-8.31-12.54-13.44,23.06-3.52,23.98,25.56,26.36,41.2.2,1.33.35,5.17,2.22,4.9.98-14.97,3.81-29.75,2.66-44.86-1.43-18.73-14.42-58.14-39.39-52.28-9.06,2.13-7.44,16.84-.59,15.12l4.85-2.41-.63,7.8c-6.95,12.32-32.59-13.79-10.18-27.07,18.18-10.77,35.13,8.37,42.62,23.19l7.16,20.75c-1.96-15.9-3.13-32.98-10.13-47.66-7.69-16.12-33.03-35.89-51.56-34.18-10.23.94-20.58,9.8-11.02,18.9,5.13,2.42,7.33-5.46,8.44-2.04.74,2.28,1.56,7.04-.59,8.54-17.52,4.44-25.37-19.1-10.09-28.28,18.72-11.25,39.12-.48,52.87,13.26-12.43-21.21-48.23-39.38-72.4-31.49-6.04,1.97-8.06,7.34-13.32,9.4-1.62-29.5,47.25-17.89,61.72-6.5,3.67.38,1.05-1.6,0-2.61-18.78-18.07-54.97-14.78-79.18-20.85-17.38-4.36-36.85-14.49-50.13-26.52-16.75-15.19-34.1-48.49-61.03-42.24l1.18-4.65c4.24-3.37,9.58-3.64,14.73-2.82,4.57.73,7.26,4.41,11.35,4.24-11.13-15.56-44.11-43.55-63.01-26.64-9.35,8.36-5.37,24.74,7.54,20.52,5.14-1.68,1.99-8.85,5.44-7.51,4.85,1.88,4.24,11.15-.12,14.13-22.21,15.22-40.86-29.6-6.55-37.73,39.34-9.31,69.11,43.88,87.87,70.35-19.54-42.33-52.73-96.39-107-90.77-15.61,1.62-45.52,14.76-39.2,34.98,2.57,8.22,14.23,8.83,16.94-.06,8.99,26.73-29.72,31.69-39.84,8.66-10.82-24.64,8.28-42.2,30.39-48ZM494.96,62.67l12.15,17.29c-7.36,12.57-8.76,27.38-12.8,41.15l-12.76-42.02,13.42-16.42ZM63.03,471.23c2.9-30.51,42.8-19.87,34.08,1.61-3.67,9.04-19.18,9.16-13.33-2.99l7.82.72c1.83-13.22-15.36-14.51-20.12-3.89-4.19,9.33-1.29,18.89,8.45,22.72,36.66,14.4,59.43-51.14,29.48-69.75l-15.17-2.99c7.72-9.15,18.54-3.2,24.64,4.55-3.29-12.87-20.63-28.55-33.14-16.91-8.47,7.88-4.95,28.61,7.83,20.84l1.87,3.14c-2.01,9.1-11.16,7.35-16.08.63-9.07-12.4-4.49-31.63,11.18-35.39,20.79-4.98,35.36,20.33,38.4,37.77.74,4.22-.98,10.21,1.62,13.29,5.16-23.4-2.8-44.32-18.22-61.66-6.41-7.21-13.21-15.42-23.33-9.79,5.71-15.91,17.91-7.75,25.96,1.31-3.04-16.58-8.56-34.14-6.37-51.2.22-1.7,3.61-15.53,6.38-12.45-.86,19.5.66,38.12,4.51,57.2.56,2.78,1.37,8.47,3.28,10.34-8-48.71-.23-103.25,33.83-140.91,14.59-16.13,43.61-30.25,53.45-49.18,1.15-2.21,5.6-20.17,7.63-6.78,2.31,15.3-9.55,25.62-20.84,33.17,21.48-4.43,44.02-6.72,58.99-24.78,7.7-9.29,16.76-36.38-3.26-30.51-3.48,1.02-2.59,5-6.36,4.63-4.48-41.2,44.29-36.17,40.32,4.61-1.13,11.63-9.9,23.55-18.23,31.13,3.52.34,10.51-5.45,13.66-8.42,15.21-14.34,31.49-47.37,20.84-67.66-2.34-4.45-6.45-4.1-5.92-9.01,14.03.49,16.93,11.37,17.52,23.37,18.44-35.78,47.08-59.32,88.37-62.32,30.44-2.21,80.39,6.61,71.78,48.39-4.85,23.51-46.46,23.1-43.86-4.24,5.84,2.94,8.65,11.42,16.16,3.81,13.49-13.68-11.04-33.2-23.67-37.24-56.58-18.13-98.3,37.53-117.2,82.78,19.31-26.69,44.89-72.95,84.76-65.94,25.8,4.54,23.27,45.28-.65,40.98-8.88-1.6-12.3-14-5.51-16.6,2.99-1.15,1.47,3.9,3.09,5.96,5.99,7.67,25.9-5.3,8.57-18.96-22.57-17.8-51.92,13.35-65.59,29.23l17.59-7.22c2.39-1.21,13.44,4.39,10.98,6.56-28.97-.7-45.09,32.32-65.56,49.41-41.68,34.79-84.4,14.44-126.06,42.83-1.37,2.88,1.91.71,2.88.27,7.5-3.42,12.98-6.65,21.38-8.5,14.99-3.3,41.32-4.02,40.06,17.33-5.8-2.29-5.84-7.57-12.67-10.04-23.04-8.34-56.75,7.1-70.45,26.3l19.51-10.37c11.36-4.68,28.48-4.27,36.36,6.45,6.72,9.14,4.5,25.41-8.46,25.46-13.52.06-8.29-14.18-4.57-11.8l2.09,3.79,4.46-.52c8.94-13.63-8.47-19.88-20.01-18.71-33.22,3.36-53.49,47.84-51.45,77.79l12.44-27.16c8.77-11.44,25.03-22.29,38.87-11.81,13.16,9.97,2.7,38.78-13.02,24.7l-.02-5.24,3.27-.45,4.86,2.17c12.72-15.42-8.75-21.4-21.08-13.37-25.19,16.4-25.54,72.74-20.12,98.73l3.16-24.75c1.15-7.98,8.75-23.71,17.25-25.64,3.25-.74,8.4-1.07,8.16,3.62-1.51.08-3.59.21-4.82,1.01-33.7,22.01.78,104.53-43.9,136.7-19.18,13.81-51.4,8.22-48.71-20.13ZM60.4,516.66l3.28-7.1c11.39-1.1,25.34,1.49,36.37,0,2.71-.36,9.61-3.17,12.39-4.5,3.62-1.73,9.87-8.63,12.99-6.62,5.02,3.23,6.25,28.94-.82,33.11-8.15-3.97-13.77-10.2-23.37-11.48-10.37-1.39-29.45,3.8-35.66,1.9-2.21-.68-4.92-2.81-5.18-5.31ZM456.67,935.65c4.93-3.39,7.52-7.57,3.75-13.5-10.18-16.02-42.4,5.97-53.16,10.24-32.44,12.87-81.96.58-94.82-34.4-.69-.66-9.84,14.96-15.57,7.14,10.48-3.91,8.79-21.32,7.2-30.58-1.83-10.63-12.15-26-20.19-33.08-2.65-2.33-8.93-7.19-11.7-6.49,11.5,10.51,19.25,24.03,13.94,39.93-7.39,22.13-37.98,18.23-38.62-4.2,3.06-.61,3.8,3.09,6.13,3.71,5.22,1.39,10.84-3.46,11.73-8.57,4.59-26.45-39.97-43.72-60.74-45.8,8.02,7.58,16.22,16.52,12.35,28.56-11.9-24.42-37.59-34.5-55.28-52.54-33.75-34.43-47.02-87.39-40.22-134.51l-9.42,49.67-3.56,4.89v-29.23c0-9.2,8.81-25.97,10.38-35.72-6.6,10.37-22.48,19.53-29.86,5.2,10.75,3.36,21.6-7.85,27.94-15.58,13.44-16.41,16.42-31.52,14.91-52.6-.15-2.1-.77-8.58-2.58-9.77-.65,6.75.89,14.89,0,21.44-1.79,13.19-16.95,37.2-31.75,37.07-21.44-.19-28.92-29.03-10.4-39.06l6.33,1.43,2.02,6.39c-14.34-8.66-17.25,16.14-5.67,21.92,12.93,6.45,27.87-8.37,30.35-20.61-3.62,3.24-6.05,8.86-11.3,10.1-5.68,1.34-11.31.82-14.64-4.26l14.62-2.25c26.52-12.58,14.33-79.68-25.38-72.14-16.91,3.21-20.12,32.53-.29,32.28,8.18-.11,11.18-4.17,8.42-11.81l-9.08,1.3c-3.36-10.32,11.65-10.06,14.62-3.59,9.53,20.77-28.31,30.81-33.54,6.26-7.67-36.02,33.69-41.44,55.32-18.95,29.51,30.68,12.7,76.52,23.01,112.09,2.59,8.92,7.73,22.54,18.53,22.41l-.06,3.81c-14.59,4.49-22.98-12.6-25.35-24.54l-3.17-24.74c-6.09,25.99-3.65,88.97,26.89,99.75,24.95,8.81,26.54-23.21,5.58-14.02l-.39-4.83c2.23-5.34,11.76-5.5,15.95-2.29,7.02,7,7.98,19.52-.05,25.88-15.39,12.18-33.31-1.77-42.01-14.99l-11.16-24.55c.52,27.51,16.61,65.23,45.17,73.68,12.72,3.76,35.52,3.2,28.24-15.25l-3.86-1.34-7.2,3.96c-2.29-5.58-1.44-10.88,4.85-12.77,13.81-2.49,25.06,22.35,4.72,32.1-18.5,8.87-36.96-1.7-50.51-14.12-.83,2.26,4.87,8.84,7.1,11.08,16.49,16.59,58.68,39.86,74.09,11.62,2.88-2.06,6.3,11.26-4.28,16.52-11.02,5.49-32.12,2.09-43.36-2.63-4.87-2.05-8.01-5.17-12.1-7.39-2.16-1.17-4-1.33-1.33,1.33,23.89,22.76,55.75,17.03,84.72,24.4,22.1,5.62,40.7,16.94,55.55,34.08,10.36,11.95,19.52,36.91,38.84,30.31l-2.42-8.9,7.78-.72c8.2,8.33-1.66,19.47-11.2,20.15-5.71.41-6.4-3.6-10.87-3.21,13.58,22.89,52.07,44.63,77.34,29.28,16.18-9.83,1.77-30.72-11.02-17.43l3.82,5.06-2.02,3.21c-9.84,2.6-15.59-22.32,9.2-19.49,13.42,1.53,17,16.76,11.01,27.29,4.59-1.23,7.94-4.74,12.72-6.11,11.18-3.19,32.8-3.16,37.69,9.68,3.23,8.47-3.88,17.52-12.72,13.31ZM178.42,674.12c-102.83-227.69,35.21-511.34,294.86-524.03,323.56-15.81,479.54,361.29,288.62,604.3-162.91,207.36-477.3,154.82-583.48-80.28ZM923.7,566.73c-11.33,26.08-53.57-2-23.37-14.4l3.99,1.31.32,6.4-7.6.18,1.29,8.46c29.62,8.12,26.37-34.64-4.42-30.42-34.91,4.79-40.93,80.84.55,73.29-5.38,10.26-17.03,8.03-24.05.64-.74,4.65,9.46,14.3,14.01,15.87,15.75,5.41,28.58-9.43,17.83-23.02l-8.45-.63c-4.33-1.24,5.64-14.43,15.18.4,10.59,16.45-4.86,35.59-23.4,31.18-11.86-2.82-21.03-17.52-24.84-28.41l-2.66-25.25c-3.79,23.62-1.57,43.37,14.24,61.73,5.09,5.91,17.06,18.83,24.7,12.31l-2.68,5.75c-8.6,5.32-15.05-1.23-21.98-5.75,4.78,19.5,10.35,41.52,3.87,61.05-5.52-5.32-1.24-16.83-2.61-24l-9.05-38.35c3.02,26.18,5.84,49.41-.67,75.34-5.79,23.07-23.76,51.8-40.26,68.87-16.71,17.29-42.48,25.25-51.98,49.35-2.02-7.91-.23-17.17,5.34-23.24,2.22-2.42,5.77-2.76,7-5.32-21.05-.68-68.32,21.84-60.05,47.71,1.73,5.42,5.28,7.92,11.06,6.87l2.88-3.93,3.18,2.07c-5.19,23.69-36.62,23.03-38.96-2.67-1.4-15.35,4.06-26.73,15.63-36.44.21-.97-1.32-.87-1.92-.63-19.02,7.82-42.7,49.4-30.36,68,2.1,3.17,5.44,2.42,5,6.02-16.33-.05-20.02-16.66-14.65-29.58l10.11-23.66c-22.28,29.63-37.26,79.28-81.88,81.81-30.73,1.74-48.02-30.4-76.07-12.42-2.64,5.53-2.13,9.19,2.69,12.43l-7.74.69c-6.28-4.26-5.09-13.37-.11-18.27,11.24-11.06,34.88-8.32,46.81.71-7.62-14.86,1.07-30.45,18.55-26.98,11.71,2.33,15.16,19.09.96,19.17l2.34-10.15c-15.14-9.1-25.74,8.35-10.58,19.03,18.7,13.17,48.2.78,62.84-13.38,3.17-3.07,15.37-18.63,16.82-22.16.24-.6.34-2.12-.63-1.92-8.31,13.93-34.83,8.66-24.06-8.49,10.68-.98-.06,4.46,3.91,7.84,8.11,8.45,24.51-11.12,29.93-16.86,21.8-23.1,25.89-33.41,59.05-43.58,28.43-8.72,59.08-4.13,83.84-21.38,2.63-2.79.84-2.22-1.43-1.43-13.4,4.67-41.4,13.79-53.26,1.5-5.1-5.28-3.15-15.59.07-12.43,2.29,12.25,20.75,12.64,30.53,11.67,11.77-1.17,28.31-9.69,37.47-17.09,3.1-2.51,13.82-13.12,15.15-16.03.26-.56.33-2.13-.63-1.92-11.67,14.54-43.74,26.96-57.19,9.11-9.49-12.6,1.93-33.72,15.59-20.78,1.31,2.63,1.33,6.72-1.89,7.76l-2.13-3.76c-10.03-3.59-14.28,14.09,1.54,16.66,42.99,6.98,68.79-48.21,65.5-84.35-2.36,2.46-1.11,7.98-1.87,11.75-3.85,19.19-20.39,46.96-43.63,40.89-5.79-1.51-14.33-10.77-14.32-16.92.03-13.27,20.34-23.29,22.15-7.15l-10.4-.69c-9.12,4.73.96,26.79,21.23,13.47,25.63-16.85,25.37-70.72,21.28-97.51-.21-1.35-.34-5.17-2.23-4.91-.76,8.43,1.04,18.43,0,26.63-1.38,10.9-12.32,33.09-25.91,27.84l-.06-3.78c4.15.09,6.39-1.8,9.08-4.59,27.36-28.38-2.49-88.97,31.22-128.57,24.15-28.37,70.04-12.75,55.19,21.41ZM924.72,520.98c-16.56.32-28.19-4.68-44.55,2.22-3.92,1.66-15.15,12.01-18.13,9.69-3.28-11.53-7.58-26.73,2.05-36.26,14.22,13.38,27.13,12.77,45.36,12.98,6.96.08,20.13-4.55,18.57,8.1l-3.29,3.26Z"/>
      <path class="cls-1" d="M473.28,157.89c-259.18,15.17-396.05,303.24-281.87,526.62,123.22,241.06,449.85,259.63,591.05,25.5,146.05-242.18-13.71-569.41-309.19-552.12ZM590.16,847.67c-208.37,64.25-404.47-89.13-424.48-298.51-17.52-183.25,110.25-367.24,301.11-376.98,98.61-5.03,173.89,17.01,247.11,83.39,189.76,172.04,123.6,515.84-123.74,592.1Z"/>
      <path class="cls-1" d="M469.39,20.18C130.47,36.32-80.99,421.28,65.78,721.8c153.52,314.32,540.56,385.44,778.67,116.44C1125.57,520.67,898.41-.25,469.39,20.18ZM89.82,717.25C-52.44,434.32,143.92,62.25,465.49,43.57c382.7-22.23,613.99,427.73,396.25,735.31-210.37,297.17-610.75,258.87-771.91-61.63Z"/>
      <path class="cls-1" d="M493.9,0C221.13,0,0,228.8,0,511.04s221.13,511.04,493.9,511.04,493.9-228.8,493.9-511.04S766.68,0,493.9,0ZM56.72,720.48C-92.02,410.75,135.92,12.09,484.98,9.79l45.06.93c381.04,33.32,576.61,482.27,352.48,792.84-228.17,316.17-660.62,260.89-825.8-83.08Z"/>
      <path class="cls-1" d="M865.87,504.36v18.19c7.12-3.52,12.2-8.53,20.8-8.44-3.86-1.01-7.37-.39-11.36-1.65-4.84-1.53-6.26-5.07-9.44-8.1Z"/>
      <path class="cls-1" d="M707.97,866.89c1.01,10.68,11.01,20.34,21.49,13.55-23.79-9.49-11.87-33.83,3.29-46.08,5.02-4.06,11.09-6.63,16.2-10.41-19.03,2.38-42.94,22.32-40.98,42.94Z"/>
    </g>
  </g>
</svg>